<?xml version="1.0" standalone="no"?>
<!DOCTYPE svg PUBLIC "-//W3C//DTD SVG 20010904//EN"
 "http://www.w3.org/TR/2001/REC-SVG-20010904/DTD/svg10.dtd">
<svg version="1.0" xmlns="http://www.w3.org/2000/svg"
 width="512.000000pt" height="512.000000pt" viewBox="0 0 512.000000 512.000000"
 preserveAspectRatio="xMidYMid meet">
<metadata>
Created by potrace 1.11, written by Peter Selinger 2001-2013
</metadata>
<g transform="translate(0.000000,512.000000) scale(0.100000,-0.100000)"
fill="#000000" stroke="none">
<path d="M2365 4314 c-335 -35 -615 -113 -890 -249 -526 -259 -950 -686 -1225
-1234 -124 -248 -122 -302 19 -577 361 -703 999 -1216 1726 -1387 207 -49 322
-62 565 -62 243 0 358 13 565 62 740 174 1381 696 1744 1420 121 242 121 304
1 544 -143 285 -294 496 -518 722 -399 405 -891 658 -1442 742 -101 16 -459
28 -545 19z m396 -324 c409 -42 810 -208 1154 -480 121 -96 320 -301 419 -433
174 -232 220 -341 220 -517 0 -176 -46 -285 -220 -517 -99 -132 -298 -337
-419 -433 -344 -272 -745 -438 -1154 -480 -543 -54 -1095 116 -1556 480 -121
96 -320 301 -419 433 -174 232 -220 341 -220 517 0 175 47 286 216 512 486
644 1236 992 1979 918z"/>
<path d="M2440 3829 c-442 -44 -825 -308 -1024 -707 -145 -289 -169 -655 -66
-964 149 -443 532 -773 990 -854 123 -21 317 -21 440 0 458 81 842 411 990
854 103 309 79 675 -66 964 -87 176 -236 353 -389 466 -244 180 -576 271 -875
241z m332 -661 c189 -71 323 -205 396 -396 24 -61 26 -80 26 -212 0 -132 -2
-151 -26 -212 -37 -98 -85 -173 -154 -242 -69 -69 -144 -117 -242 -154 -61
-24 -80 -26 -212 -26 -132 0 -151 2 -212 26 -191 73 -326 207 -396 396 -34 90
-42 261 -18 361 15 61 15 71 1 104 -8 20 -15 66 -15 105 0 113 60 206 164 253
50 23 162 25 211 5 30 -13 41 -13 77 -1 72 23 79 24 208 21 105 -2 136 -7 192
-28z"/>
<path d="M2472 3033 c-17 -3 -22 -9 -17 -21 4 -9 10 -47 12 -83 9 -112 -45
-207 -148 -258 -66 -33 -132 -40 -196 -22 -37 11 -43 -1 -43 -89 0 -215 153
-409 367 -465 249 -65 511 94 578 352 65 249 -94 511 -350 578 -56 14 -151 18
-203 8z"/>
</g>
</svg>
